<?xml version="1.0" encoding="UTF-8" standalone="no"?>
<svg width="16px" height="16px" viewBox="0 0 16 16" version="1.1" xmlns="http://www.w3.org/2000/svg" xmlns:xlink="http://www.w3.org/1999/xlink">
  <defs>
    <g id="percent">
      <path d="M3.048,16c0.284,0 0.468,-0.126 0.686,-0.444l4.948,-7.309l4.831,-7.125c0.109,-0.142 0.159,-0.293 0.159,-0.486c0,-0.343 -0.318,-0.636 -0.686,-0.636c-0.31,0 -0.486,0.117 -0.712,0.452l-4.831,7.142l-4.94,7.251c-0.117,0.159 -0.167,0.326 -0.167,0.51c0,0.369 0.301,0.645 0.712,0.645Zm0.201,-8.197c1.8,0 2.888,-1.482 2.888,-3.843c0,-2.361 -1.097,-3.818 -2.888,-3.818c-1.801,0 -2.897,1.466 -2.897,3.818c0,2.37 1.088,3.843 2.897,3.843Zm0,-1.172c-0.972,0 -1.549,-0.98 -1.549,-2.671c0,-1.666 0.586,-2.654 1.549,-2.654c0.962,0 1.54,0.98 1.54,2.654c0,1.691 -0.569,2.671 -1.54,2.671Zm9.511,9.227c1.8,0 2.888,-1.482 2.888,-3.835c0,-2.369 -1.096,-3.826 -2.888,-3.826c-1.8,0 -2.897,1.465 -2.897,3.826c0,2.361 1.088,3.835 2.897,3.835Zm0,-1.164c-0.971,0 -1.549,-0.988 -1.549,-2.671c0,-1.674 0.586,-2.654 1.549,-2.654c0.963,0 1.54,0.971 1.54,2.654c0,1.683 -0.569,2.671 -1.54,2.671Z" style="fill-rule:nonzero;"/>
    </g>
    <g id="filter" fill-rule="nonzero">
      <path d="M8,16c4.376,0 8,-3.624 8,-8c0,-4.369 -3.631,-8 -8.008,-8c-4.368,0 -7.992,3.631 -7.992,8c0,4.376 3.631,8 8,8Zm0,-1.333c-3.702,0 -6.659,-2.965 -6.659,-6.667c0,-3.694 2.949,-6.667 6.651,-6.667c3.702,0 6.667,2.973 6.675,6.667c0.008,3.702 -2.965,6.667 -6.667,6.667Zm-4.275,-8.173l8.557,0c0.345,0 0.596,-0.22 0.596,-0.549c0,-0.337 -0.251,-0.557 -0.596,-0.557l-8.557,0c-0.345,0 -0.588,0.22 -0.588,0.557c0,0.329 0.243,0.549 0.588,0.549Zm1.169,2.596l6.228,0c0.345,0 0.588,-0.219 0.588,-0.549c0,-0.337 -0.243,-0.557 -0.588,-0.557l-6.228,0c-0.353,0 -0.596,0.22 -0.596,0.557c0,0.33 0.243,0.549 0.596,0.549Zm1.208,2.604l3.804,0c0.345,0 0.596,-0.22 0.596,-0.549c0,-0.337 -0.251,-0.557 -0.596,-0.557l-3.804,0c-0.345,0 -0.588,0.22 -0.588,0.557c0,0.329 0.243,0.549 0.588,0.549Z" style="fill-rule:nonzero;"/>
    </g>
    <g id="person_crop_circle">
      <path d="M8,16c4.376,0 8,-3.624 8,-8c0,-4.369 -3.631,-8 -8.008,-8c-4.368,0 -7.992,3.631 -7.992,8c0,4.376 3.631,8 8,8Zm0,-12.518c1.506,0 2.69,1.318 2.69,2.902c0,1.687 -1.184,2.973 -2.69,2.957c-1.506,-0.016 -2.69,-1.27 -2.69,-2.957c-0.008,-1.584 1.184,-2.902 2.69,-2.902Zm4.769,9.161l0.023,0.102c-1.2,1.286 -2.988,2.024 -4.792,2.024c-1.804,0 -3.592,-0.738 -4.792,-2.024l0.023,-0.102c0.675,-0.941 2.361,-1.969 4.769,-1.969c2.416,0 4.094,1.028 4.769,1.969Z" style="fill-rule:nonzero;"/>
    </g>
    <g id="person_circle">
      <path d="M8,15.984c4.376,0 8,-3.623 8,-8c0,-4.368 -3.631,-8 -8.008,-8c-4.368,0 -7.992,3.632 -7.992,8c0,4.377 3.631,8 8,8Zm0,-5.325c-2.361,0 -4.173,0.839 -4.973,1.78c-1.051,-1.176 -1.686,-2.737 -1.686,-4.455c0,-3.694 2.949,-6.666 6.651,-6.666c3.702,0 6.667,2.972 6.675,6.666c0.008,1.726 -0.636,3.287 -1.694,4.463c-0.793,-0.941 -2.612,-1.788 -4.973,-1.788Zm0,-1.334c1.506,0.016 2.69,-1.27 2.69,-2.956c0,-1.585 -1.184,-2.902 -2.69,-2.902c-1.506,0 -2.698,1.317 -2.69,2.902c0.008,1.686 1.184,2.941 2.69,2.956Z" style="fill-rule:nonzero;"/>
    </g>
    <g id="power">
      <path d="M8,8.251c0.371,0 0.626,-0.27 0.626,-0.657l0,-6.937c0,-0.394 -0.255,-0.657 -0.626,-0.657c-0.371,0 -0.618,0.263 -0.618,0.657l0,6.937c0,0.387 0.247,0.657 0.618,0.657Zm0,7.749c4.195,0 7.679,-3.477 7.679,-7.672c0,-2.279 -1.027,-4.349 -2.642,-5.755c-0.633,-0.572 -1.553,0.332 -0.827,0.973c1.322,1.151 2.156,2.874 2.156,4.782c0,3.531 -2.835,6.366 -6.366,6.366c-3.531,0 -6.358,-2.835 -6.358,-6.366c0,-1.908 0.826,-3.623 2.147,-4.782c0.734,-0.641 -0.193,-1.545 -0.826,-0.973c-1.615,1.406 -2.642,3.476 -2.642,5.755c0,4.195 3.484,7.672 7.679,7.672Z" style="fill-rule:nonzero;"/>
    </g>
    <g id="doc_circle">
      <path d="M8,16c4.376,0 8,-3.624 8,-8c0,-4.369 -3.631,-8 -8.008,-8c-4.368,0 -7.992,3.631 -7.992,8c0,4.376 3.631,8 8,8Zm0,-1.333c-3.702,0 -6.659,-2.965 -6.659,-6.667c0,-3.694 2.949,-6.667 6.651,-6.667c3.702,0 6.667,2.973 6.675,6.667c0.008,3.702 -2.965,6.667 -6.667,6.667Zm-2.251,-2.291l4.486,0c0.871,0 1.302,-0.447 1.302,-1.325l0,-3.773l-3.106,0c-0.541,0 -0.8,-0.251 -0.8,-0.792l0,-3.161l-1.882,0c-0.871,0 -1.302,0.447 -1.302,1.326l0,6.4c0,0.886 0.431,1.325 1.302,1.325Zm2.745,-5.733l3.004,0c-0.031,-0.172 -0.157,-0.345 -0.361,-0.549l-2.321,-2.369c-0.196,-0.204 -0.377,-0.329 -0.549,-0.353l0,3.044c0,0.149 0.078,0.227 0.227,0.227Z" style="fill-rule:nonzero;"/>
    </g>
    <g id="cube_box">
      <path d="M1.621,12.552l5.774,3.272c0.411,0.235 0.799,0.235 1.218,0l5.766,-3.272c0.675,-0.389 1.028,-0.771 1.028,-1.82l0,-5.811c0,-0.763 -0.279,-1.232 -0.895,-1.592l-5.195,-2.949c-0.888,-0.507 -1.746,-0.507 -2.634,0l-5.187,2.949c-0.624,0.36 -0.903,0.829 -0.903,1.592l0,5.811c0,1.049 0.36,1.431 1.028,1.82Zm9.831,-7.11l-5.686,-3.213l1.409,-0.8c0.565,-0.323 1.085,-0.33 1.658,0l4.835,2.759l-2.216,1.254Zm-3.448,1.952l-5.664,-3.206l2.267,-1.299l5.664,3.221l-2.267,1.284Zm-5.723,4.189c-0.426,-0.242 -0.572,-0.484 -0.572,-0.888l0,-5.539l5.715,3.265l0,6.09l-5.143,-2.928Zm11.445,0l-5.15,2.928l0,-6.09l5.715,-3.265l0,5.539c0,0.404 -0.146,0.646 -0.565,0.888Z" style="fill-rule:nonzero;"/>
    </g>
    <g id="rectangle_person_stack_crop">
      <path d="M3.356,0.917l9.295,0c-0.043,-0.597 -0.384,-0.917 -1.039,-0.917l-7.217,0c-0.655,0 -0.996,0.32 -1.039,0.917Zm-1.393,1.97l12.081,0c-0.106,-0.647 -0.412,-1.003 -1.123,-1.003l-9.835,0c-0.711,0 -1.017,0.356 -1.123,1.003Zm0.647,13.113l10.78,0c1.486,0 2.233,-0.74 2.233,-2.204l0,-7.552c0,-1.465 -0.747,-2.205 -2.233,-2.205l-10.78,0c-1.494,0 -2.233,0.733 -2.233,2.205l0,7.552c0,1.464 0.739,2.204 2.233,2.204Zm0.014,-1.145c-0.711,0 -1.102,-0.384 -1.102,-1.123l0,-7.432c0,-0.739 0.391,-1.116 1.102,-1.116l10.752,0c0.697,0 1.102,0.377 1.102,1.116l0,7.432c0,0.739 -0.405,1.123 -1.102,1.123l-0.889,0c-0.576,-1.308 -2.091,-2.738 -4.494,-2.738c-2.404,0 -3.918,1.43 -4.494,2.738l-0.875,0Zm5.369,-3.726c1.202,0.007 2.169,-1.088 2.169,-2.382c0,-1.273 -0.967,-2.311 -2.169,-2.311c-1.202,0 -2.169,1.038 -2.169,2.311c0,1.294 0.967,2.368 2.169,2.382Z" style="fill-rule:nonzero;"/>
    </g>
    <g id="plus_circle">
      <path d="M8,15.984c4.376,0 8,-3.623 8,-8c0,-4.368 -3.631,-8 -8.008,-8c-4.368,0 -7.992,3.632 -7.992,8c0,4.377 3.631,8 8,8Zm0,-1.333c-3.702,0 -6.659,-2.965 -6.659,-6.667c0,-3.694 2.949,-6.666 6.651,-6.666c3.702,0 6.667,2.972 6.675,6.666c0.008,3.702 -2.965,6.667 -6.667,6.667Zm-0.016,-2.941c0.416,0 0.667,-0.29 0.667,-0.745l0,-2.322l2.455,0c0.439,0 0.745,-0.227 0.745,-0.643c0,-0.424 -0.29,-0.667 -0.745,-0.667l-2.455,0l0,-2.463c0,-0.462 -0.251,-0.745 -0.667,-0.745c-0.415,0 -0.651,0.298 -0.651,0.745l0,2.463l-2.447,0c-0.455,0 -0.753,0.243 -0.753,0.667c0,0.416 0.314,0.643 0.753,0.643l2.447,0l0,2.322c0,0.439 0.236,0.745 0.651,0.745Z" style="fill-rule:nonzero;"/>
    </g>
    <g id="share">
      <path d="M8.004,10.449c0.304,0 0.56,-0.255 0.56,-0.553l0,-7.28l-0.043,-1.064l0.475,0.504l1.078,1.148c0.099,0.114 0.248,0.17 0.382,0.17c0.291,0 0.518,-0.212 0.518,-0.503c0,-0.149 -0.064,-0.262 -0.17,-0.369l-2.396,-2.311c-0.142,-0.141 -0.263,-0.191 -0.404,-0.191c-0.149,0 -0.27,0.05 -0.412,0.191l-2.396,2.311c-0.106,0.107 -0.17,0.22 -0.17,0.369c0,0.291 0.213,0.503 0.511,0.503c0.134,0 0.29,-0.056 0.389,-0.17l1.078,-1.148l0.475,-0.504l-0.043,1.064l0,7.28c0,0.298 0.263,0.553 0.568,0.553Zm-4.07,5.551l8.132,0c1.481,0 2.226,-0.737 2.226,-2.198l0,-7.074c0,-1.461 -0.745,-2.198 -2.226,-2.198l-1.978,0l0,1.141l1.956,0c0.702,0 1.106,0.383 1.106,1.12l0,6.948c0,0.737 -0.404,1.12 -1.106,1.12l-8.095,0c-0.709,0 -1.099,-0.383 -1.099,-1.12l0,-6.948c0,-0.737 0.39,-1.12 1.099,-1.12l1.963,0l0,-1.141l-1.978,0c-1.481,0 -2.226,0.737 -2.226,2.198l0,7.074c0,1.461 0.745,2.198 2.226,2.198Z" style="fill-rule:nonzero;"/>
    </g>
    <g id="square_and_pencil">
      <path d="M14.889,1.855l0.571,-0.586c0.269,-0.277 0.277,-0.665 0.007,-0.926l-0.182,-0.191c-0.245,-0.245 -0.641,-0.213 -0.895,0.04l-0.578,0.57l1.077,1.093Zm-9.115,8.237l1.544,-0.673l6.985,-6.986l-1.085,-1.069l-6.977,6.985l-0.713,1.489c-0.063,0.135 0.095,0.317 0.246,0.254Zm-3.287,5.892l9.298,0c1.417,0 2.249,-0.823 2.249,-2.455l0,-8.815l-1.275,1.275l0,7.477c0,0.823 -0.452,1.243 -0.998,1.243l-9.258,0c-0.792,0 -1.228,-0.42 -1.228,-1.243l0,-8.989c0,-0.824 0.436,-1.252 1.228,-1.252l6.85,0l1.275,-1.275l-8.141,0c-1.655,0 -2.487,0.824 -2.487,2.455l0,9.124c0,1.639 0.832,2.455 2.487,2.455Z" style="fill-rule:nonzero;"/>
    </g>
    <g id="trash_fill">
      <path d="M4.531,15.984l6.945,0c0.906,0 1.453,-0.504 1.49,-1.409l0.467,-10.669l1.096,0c0.299,0 0.54,-0.256 0.54,-0.555c0,-0.3 -0.241,-0.548 -0.54,-0.548l-3.33,0l0,-1.095c0,-1.052 -0.709,-1.724 -1.833,-1.724l-2.732,0c-1.124,0 -1.825,0.672 -1.825,1.724l0,1.095l-3.338,0c-0.292,0 -0.54,0.256 -0.54,0.548c0,0.299 0.248,0.555 0.54,0.555l1.11,0l0.468,10.669c0.036,0.905 0.577,1.409 1.482,1.409Zm1.446,-13.181l0,-1.022c0,-0.417 0.3,-0.709 0.745,-0.709l2.563,0c0.446,0 0.752,0.292 0.752,0.709l0,1.022l-4.06,0Zm-1.022,10.633l-0.329,-7.96c-0.014,-0.307 0.205,-0.533 0.482,-0.533c0.256,0 0.475,0.241 0.489,0.533l0.3,7.96c0.007,0.299 -0.197,0.54 -0.482,0.54c-0.263,0 -0.453,-0.219 -0.46,-0.54Zm2.556,0l-0.008,-7.96c0,-0.292 0.234,-0.533 0.497,-0.533c0.27,0 0.504,0.241 0.504,0.533l0,7.96c0,0.299 -0.241,0.54 -0.504,0.54c-0.263,0 -0.489,-0.241 -0.489,-0.54Zm2.607,0l0.299,-7.96c0.007,-0.292 0.227,-0.533 0.489,-0.533c0.271,0 0.49,0.226 0.482,0.533l-0.328,7.96c-0.008,0.321 -0.205,0.54 -0.475,0.54c-0.277,0 -0.475,-0.241 -0.467,-0.54Z" style="fill-rule:nonzero;"/>
    </g>
    <g id="envelope">
      <path d="M2.275,14.227l11.667,0c1.304,0 2.058,-0.754 2.058,-2.246l0,-8c0,-1.486 -0.761,-2.24 -2.275,-2.24l-11.667,0c-1.304,0 -2.058,0.747 -2.058,2.24l0,8c0,1.5 0.761,2.246 2.275,2.246Zm4.863,-5.877l-5.471,-5.398c0.159,-0.066 0.347,-0.102 0.565,-0.102l11.536,0c0.225,0 0.42,0.036 0.58,0.116l-5.457,5.384c-0.311,0.312 -0.594,0.449 -0.877,0.449c-0.289,0 -0.572,-0.137 -0.876,-0.449Zm-6.029,3.631l0,-8l0,-0.073l4.166,4.087l-4.159,4.109c-0.007,-0.036 -0.007,-0.08 -0.007,-0.123Zm13.782,-7.993l0,8.094l-4.137,-4.087l4.137,-4.065l0,0.058Zm-12.659,9.13c-0.203,0 -0.384,-0.029 -0.529,-0.094l4.333,-4.283l0.471,0.464c0.507,0.5 0.993,0.71 1.507,0.71c0.508,0 1,-0.21 1.508,-0.71l0.471,-0.464l4.326,4.276c-0.16,0.072 -0.341,0.101 -0.551,0.101l-11.536,0Z" style="fill-rule:nonzero;"/>
    </g>
    <g id="phone">
      <path d="M11.894,16.006c1.431,0 2.372,-0.384 3.198,-1.317c0.066,-0.065 0.131,-0.139 0.188,-0.204c0.491,-0.548 0.72,-1.088 0.72,-1.604c0,-0.589 -0.343,-1.137 -1.071,-1.644l-2.381,-1.652c-0.736,-0.507 -1.595,-0.564 -2.282,0.114l-0.63,0.63c-0.188,0.188 -0.352,0.197 -0.532,0.082c-0.441,-0.278 -1.333,-1.055 -1.938,-1.66c-0.638,-0.63 -1.252,-1.334 -1.579,-1.849c-0.106,-0.188 -0.098,-0.344 0.09,-0.532l0.622,-0.63c0.687,-0.687 0.629,-1.554 0.122,-2.282l-1.652,-2.38c-0.507,-0.728 -1.055,-1.064 -1.644,-1.072c-0.516,-0.008 -1.055,0.229 -1.604,0.72c-0.073,0.065 -0.139,0.123 -0.204,0.18c-0.933,0.834 -1.317,1.775 -1.317,3.19c0,2.34 1.44,5.186 4.082,7.828c2.626,2.626 5.48,4.082 7.812,4.082Zm0.008,-1.26c-2.086,0.041 -4.761,-1.562 -6.88,-3.672c-2.134,-2.127 -3.811,-4.892 -3.77,-6.978c0.016,-0.9 0.335,-1.677 0.973,-2.233c0.057,-0.049 0.098,-0.09 0.155,-0.131c0.246,-0.213 0.508,-0.327 0.745,-0.327c0.237,0 0.45,0.09 0.605,0.335l1.587,2.381c0.172,0.253 0.188,0.54 -0.065,0.793l-0.72,0.72c-0.565,0.564 -0.524,1.252 -0.115,1.8c0.466,0.629 1.276,1.546 1.906,2.167c0.622,0.63 1.612,1.514 2.25,1.988c0.548,0.409 1.235,0.45 1.799,-0.115l0.72,-0.719c0.254,-0.254 0.532,-0.238 0.794,-0.074l2.38,1.587c0.245,0.164 0.335,0.368 0.335,0.613c0,0.238 -0.114,0.499 -0.327,0.745c-0.049,0.057 -0.082,0.098 -0.131,0.155c-0.556,0.638 -1.333,0.949 -2.241,0.965Z" style="fill-rule:nonzero;"/>
    </g>
    <g id="globe">
      <path d="M8,0 C3.59022222,0 0,3.59022222 0,8 C0,12.4097778 3.59022222,16 8,16 C12.4097778,16 16,12.4097778 16,8 C16,3.59022222 12.4097778,0 8,0 Z M7.46458667,1.15278222 L7.46458667,3.20007111 L5.57498667,3.20007111 C5.61248711,3.11812622 5.65068089,3.042432 5.68818133,2.96673778 C6.19859911,1.98410667 6.822208,1.37299556 7.46457244,1.15287111 L7.46458667,1.15278222 Z M8.53541333,1.15278222 C9.17777778,1.37292444 9.80138667,1.98403556 10.3118044,2.96664889 C10.3493049,3.04234311 10.3874987,3.11803733 10.4249991,3.19998222 L8.53539911,3.19998222 L8.53541333,1.15278222 Z M5.25968,1.62499556 C5.07079111,1.88958222 4.90065778,2.17290667 4.74302222,2.46944 C4.62357689,2.70208 4.51664,2.94791111 4.40968889,3.2 L2.99232,3.2 C3.63468444,2.53194667 4.40343111,1.99653333 5.26040889,1.62499556 L5.25968,1.62499556 Z M10.7402133,1.62499556 C11.5964622,1.99651556 12.3652089,2.53194667 13.0075911,3.2 L11.5902222,3.2 C11.4832782,2.94791111 11.3763378,2.70208 11.2568889,2.46944 C11.0992498,2.17290667 10.9291022,1.88958222 10.7402311,1.62499556 L10.7402133,1.62499556 Z M2.15408,4.26464 L4.04368,4.26464 C3.88604089,4.82504889 3.76659556,5.42366222 3.68465778,6.04721778 L1.34154667,6.04721778 C1.53043556,5.41111111 1.80752,4.81249778 2.15404444,4.26464 L2.15408,4.26464 Z M5.15888,4.26464 L7.46448,4.26464 L7.46448,6.04721778 L4.76243556,6.04721778 C4.85062933,5.41111111 4.98951111,4.81249778 5.15896889,4.26464 L5.15888,4.26464 Z M8.53523556,4.26464 L10.8408356,4.26464 C11.0109742,4.81255111 11.1491733,5.41116444 11.2373689,6.04721778 L8.53532444,6.04721778 L8.53523556,4.26464 Z M11.9553244,4.26464 L13.8449244,4.26464 C14.1914489,4.81255111 14.4685333,5.41116444 14.6574222,6.04721778 L12.3143111,6.04721778 C12.2323662,5.42360889 12.1129244,4.82499556 11.9552889,4.26464 L11.9553244,4.26464 Z M1.12065778,7.11192889 L3.58376889,7.11192889 C3.56501867,7.40151111 3.55251911,7.69804444 3.55251911,8.00012444 C3.55251911,8.30220444 3.5650192,8.59873778 3.58376889,8.88832 L1.12065778,8.88832 C1.08315733,8.59873778 1.06440711,8.30220444 1.06440711,8.00012444 C1.06440711,7.69804444 1.08315733,7.40151111 1.12135111,7.11192889 L1.12065778,7.11192889 Z M4.64848,7.11192889 L7.46448,7.11192889 L7.46448,8.88832 L4.64848,8.88832 C4.62972978,8.59873778 4.62347911,8.30220444 4.62347911,8.00012444 C4.62347911,7.69804444 4.62972924,7.40151111 4.64848,7.11192889 L4.64848,7.11192889 Z M8.53523556,7.11192889 L11.3512356,7.11192889 C11.3699858,7.40151111 11.3762364,7.69804444 11.3762364,8.00012444 C11.3762364,8.30220444 11.3699863,8.59873778 11.3512356,8.88832 L8.53523556,8.88832 L8.53523556,7.11192889 Z M12.4157689,7.11192889 L14.87888,7.11192889 C14.9163804,7.40151111 14.935824,7.69804444 14.935824,8.00012444 C14.935824,8.30220444 14.9170738,8.59873778 14.87888,8.88832 L12.4157689,8.88832 C12.4345191,8.59873778 12.4470187,8.30220444 12.4470187,8.00012444 C12.4470187,7.69804444 12.4345186,7.40151111 12.4157689,7.11192889 Z M1.34145778,9.95281778 L3.68456889,9.95281778 C3.76651378,10.5826844 3.89221333,11.17504 4.04984889,11.7353956 L2.15402667,11.7353956 C1.80750222,11.1874844 1.53041778,10.5888711 1.34152889,9.95281778 L1.34145778,9.95281778 Z M4.76154667,9.95281778 L7.46359111,9.95281778 L7.46359111,11.7353956 L5.15799111,11.7353956 C4.98785244,11.1874844 4.84965333,10.5888711 4.76145778,9.95281778 L4.76154667,9.95281778 Z M8.53452444,9.95281778 L11.2365689,9.95281778 C11.1483751,10.5889244 11.0094933,11.1875378 10.8400356,11.7353956 L8.53443556,11.7353956 L8.53452444,9.95281778 Z M12.3144356,9.95281778 L14.6575467,9.95281778 C14.4686578,10.5889244 14.1915733,11.1875378 13.8450489,11.7353956 L11.9492267,11.7353956 C12.1068658,11.1749867 12.2325689,10.5826133 12.3145067,9.95281778 L12.3144356,9.95281778 Z M2.99212444,12.8001067 L4.41573333,12.8001067 C4.51642844,13.0521956 4.62337778,13.2917689 4.74352,13.5244089 C4.90115911,13.8264889 5.07754667,14.1167644 5.26643556,14.3751111 C4.40323556,14.0098311 3.63448889,13.46816 2.99212444,12.8001067 Z M5.57470222,12.8001067 L7.46430222,12.8001067 L7.46430222,14.8473956 C6.82193778,14.6272533 6.19832889,14.0161422 5.68791111,13.0335289 C5.65041067,12.9578347 5.61221689,12.8821404 5.57471644,12.8001956 L5.57470222,12.8001067 Z M8.53505778,12.8001067 L10.4246578,12.8001067 C10.3871573,12.8820516 10.3489636,12.9577458 10.3114631,13.03344 C9.80104533,14.0160711 9.17743644,14.6271822 8.535072,14.8473067 L8.53505778,12.8001067 Z M11.5835911,12.8001067 L13.0072,12.8001067 C12.3648356,13.46816 11.5960889,14.0098311 10.7328889,14.3751111 C10.9217778,14.1167822 11.0981689,13.8272 11.2558044,13.5244089 C11.3759431,13.2917689 11.48288,13.0521956 11.5835911,12.8001067 L11.5835911,12.8001067 Z"></path>
    </g>
    <g id="mappin">
      <path d="M7.996,15.984c0.309,0 0.7,-1.204 0.7,-3.433l0,-6.98c1.228,-0.309 2.131,-1.423 2.131,-2.748c0,-1.559 -1.257,-2.839 -2.831,-2.839c-1.566,0 -2.823,1.28 -2.823,2.839c0,1.317 0.896,2.432 2.123,2.748l0,6.98c0,2.221 0.399,3.433 0.7,3.433Zm-0.805,-13.003c-0.512,0 -0.972,-0.452 -0.972,-0.979c0,-0.519 0.46,-0.964 0.972,-0.964c0.527,0 0.963,0.445 0.963,0.964c0,0.527 -0.436,0.979 -0.963,0.979Z" style="fill-rule:nonzero;"/>
    </g>
    <g id="house">
      <path d="M3.5,15.094l9,0c0.973,0 1.541,-0.548 1.541,-1.513l0,-6.254l0.884,0.808c0.137,0.137 0.294,0.233 0.493,0.233c0.322,0 0.582,-0.198 0.582,-0.527c0,-0.206 -0.082,-0.336 -0.205,-0.452l-2.377,-2.171l0,-4.035c0,-0.301 -0.199,-0.493 -0.493,-0.493l-0.898,0c-0.301,0 -0.5,0.192 -0.5,0.493l0,2.315l-2.705,-2.465c-0.24,-0.219 -0.527,-0.343 -0.822,-0.343c-0.294,0 -0.582,0.124 -0.822,0.343l-6.973,6.356c-0.123,0.116 -0.205,0.246 -0.205,0.452c0,0.329 0.26,0.527 0.582,0.527c0.192,0 0.356,-0.096 0.493,-0.233l0.884,-0.801l0,6.247c0,0.965 0.568,1.513 1.541,1.513Zm6.473,-5.65c0,-0.315 -0.206,-0.514 -0.521,-0.514l-2.904,0c-0.315,0 -0.527,0.199 -0.527,0.514l0,4.548l-2.281,0c-0.439,0 -0.678,-0.24 -0.678,-0.685l0,-6.98l4.698,-4.281c0.069,-0.068 0.151,-0.109 0.24,-0.109c0.089,0 0.171,0.034 0.247,0.109l4.691,4.281l0,6.98c0,0.445 -0.239,0.685 -0.678,0.685l-2.287,0l0,-4.548Z" style="fill-rule:nonzero;"/>
    </g>
    <g id="location">
      <path d="M1.362,8.528l5.996,0.023c0.111,0 0.167,0.048 0.167,0.167l0.016,5.98c0,0.752 0.332,1.37 0.958,1.37c0.602,0 0.927,-0.562 1.212,-1.188l6.067,-13.069c0.151,-0.309 0.222,-0.586 0.222,-0.816c0,-0.523 -0.388,-0.919 -0.919,-0.919c-0.238,0 -0.515,0.063 -0.824,0.214l-13.069,6.059c-0.602,0.278 -1.188,0.61 -1.188,1.22c0,0.61 0.586,0.959 1.362,0.959Zm0.563,-1.165c-0.064,0 -0.072,-0.079 0,-0.111l12.546,-5.758c0.095,-0.048 0.159,0 0.103,0.111l-5.758,12.546c-0.032,0.072 -0.111,0.048 -0.111,-0.016l0.047,-6.265c0,-0.325 -0.221,-0.554 -0.562,-0.554l-6.265,0.047Z" style="fill-rule:nonzero;"/>
    </g>
    <g id="textformat_123">
      <path id="Regular-M" d="M5.063,11.598l4.355,0c0.262,0 0.435,-0.168 0.435,-0.419c0,-0.252 -0.173,-0.425 -0.435,-0.425l-3.491,0l0,-0.026l2.049,-2.007c1.237,-1.211 1.615,-1.84 1.615,-2.641c0,-1.206 -1.064,-2.123 -2.485,-2.123c-1.116,0 -2.07,0.608 -2.389,1.53c-0.063,0.173 -0.089,0.325 -0.089,0.456c0,0.262 0.157,0.435 0.414,0.435c0.246,0 0.351,-0.115 0.429,-0.377c0.042,-0.162 0.1,-0.314 0.184,-0.445c0.278,-0.472 0.796,-0.766 1.451,-0.766c0.844,0 1.526,0.598 1.526,1.342c0,0.603 -0.252,1.006 -1.284,2.033l-2.453,2.453c-0.22,0.215 -0.294,0.351 -0.294,0.54c0,0.272 0.184,0.44 0.462,0.44Zm8.18,0.115c1.604,0 2.757,-0.938 2.757,-2.216c0,-1.038 -0.749,-1.719 -1.939,-1.798l0,-0.021c0.996,-0.168 1.614,-0.833 1.614,-1.766c0,-1.132 -1.027,-1.955 -2.458,-1.955c-1.079,0 -1.949,0.477 -2.321,1.258c-0.1,0.194 -0.142,0.372 -0.142,0.576c0,0.247 0.168,0.414 0.409,0.414c0.236,0 0.34,-0.099 0.419,-0.34c0.225,-0.687 0.807,-1.08 1.604,-1.08c0.938,0 1.541,0.493 1.541,1.247c0,0.787 -0.645,1.305 -1.583,1.305l-0.577,0c-0.251,0 -0.414,0.152 -0.414,0.393c0,0.236 0.163,0.393 0.414,0.393l0.587,0c1.164,0 1.856,0.493 1.856,1.368c0,0.807 -0.724,1.373 -1.761,1.373c-0.907,0 -1.552,-0.398 -1.787,-1.09c-0.084,-0.225 -0.21,-0.33 -0.435,-0.33c-0.268,0 -0.446,0.173 -0.446,0.446c0,0.183 0.047,0.351 0.147,0.534c0.435,0.828 1.347,1.289 2.515,1.289Zm-10.57,-0.01c0.288,0 0.477,-0.189 0.477,-0.477l0,-6.698c0,-0.34 -0.215,-0.529 -0.54,-0.529c-0.241,0 -0.372,0.073 -0.592,0.215l-1.745,1.132c-0.205,0.136 -0.273,0.257 -0.273,0.43c0,0.214 0.157,0.372 0.388,0.372c0.141,0 0.209,-0.042 0.304,-0.105l1.493,-0.938l0.021,0l0,6.121c0,0.288 0.179,0.477 0.467,0.477Z" style="fill-rule:nonzero;"/>
    </g>
    <g id="city">
      <path d="M11.543,7.122l0,-4.044l0.005,0l-1.776,-3.078l-1.775,3.078l0.003,0l0,4.862l-0.235,0l0,-2.568l-3.308,0l0,3.421l-0.001,3.119l-0.524,0l0,-3.209l-3.019,0l0,7.297l14.174,0l0,-8.878l-3.239,0l0,1.925l-0.305,0l0,-1.925Z" style="fill-rule:nonzero;"/>
    </g>
    <g id="info_circle">
      <path id="Regular-M" d="M8,16c4.376,0 8,-3.624 8,-8c0,-4.369 -3.631,-8 -8.008,-8c-4.368,0 -7.992,3.631 -7.992,8c0,4.376 3.631,8 8,8Zm0,-1.333c-3.702,0 -6.659,-2.965 -6.659,-6.667c0,-3.694 2.949,-6.667 6.651,-6.667c3.702,0 6.667,2.973 6.675,6.667c0.008,3.702 -2.965,6.667 -6.667,6.667Zm-0.071,-9.459c0.573,0 1.02,-0.455 1.02,-1.02c0,-0.572 -0.447,-1.027 -1.02,-1.027c-0.564,0 -1.019,0.455 -1.019,1.027c0,0.565 0.455,1.02 1.019,1.02Zm-1.302,7.106l3.193,0c0.321,0 0.572,-0.228 0.572,-0.549c0,-0.306 -0.251,-0.549 -0.572,-0.549l-0.973,0l0,-3.992c0,-0.424 -0.212,-0.706 -0.612,-0.706l-1.474,0c-0.322,0 -0.573,0.243 -0.573,0.549c0,0.321 0.251,0.549 0.573,0.549l0.839,0l0,3.6l-0.973,0c-0.321,0 -0.572,0.243 -0.572,0.549c0,0.321 0.251,0.549 0.572,0.549Z" style="fill-rule:nonzero;"/>
    </g>
    <g id="xmark_circle">
      <path d="M8,16c4.376,0 8,-3.624 8,-8c0,-4.369 -3.631,-8 -8.008,-8c-4.368,0 -7.992,3.631 -7.992,8c0,4.376 3.631,8 8,8Zm0,-1.333c-3.702,0 -6.659,-2.965 -6.659,-6.667c0,-3.694 2.949,-6.667 6.651,-6.667c3.702,0 6.667,2.973 6.675,6.667c0.008,3.702 -2.965,6.667 -6.667,6.667Zm-2.682,-3.342c0.172,0 0.337,-0.07 0.447,-0.196l2.227,-2.235l2.235,2.235c0.118,0.118 0.267,0.196 0.447,0.196c0.346,0 0.628,-0.29 0.628,-0.635c0,-0.18 -0.063,-0.329 -0.188,-0.447l-2.228,-2.227l2.236,-2.243c0.133,-0.134 0.188,-0.267 0.188,-0.44c0,-0.353 -0.283,-0.627 -0.628,-0.627c-0.164,0 -0.298,0.055 -0.431,0.188l-2.259,2.243l-2.243,-2.235c-0.11,-0.126 -0.259,-0.18 -0.431,-0.18c-0.345,0 -0.628,0.266 -0.628,0.619c0,0.173 0.063,0.322 0.188,0.439l2.228,2.236l-2.228,2.235c-0.125,0.11 -0.188,0.267 -0.188,0.439c0,0.345 0.283,0.635 0.628,0.635Z" style="fill-rule:nonzero;"/>
    </g>
    <g id="xmark">
      <path d="M0.413,13.429c-0.539,0.549 -0.568,1.561 0.019,2.139c0.588,0.587 1.59,0.568 2.139,0.019l5.433,-5.433l5.424,5.423c0.568,0.578 1.551,0.569 2.129,-0.019c0.587,-0.578 0.587,-1.561 0.019,-2.129l-5.424,-5.424l5.424,-5.433c0.568,-0.568 0.568,-1.551 -0.019,-2.129c-0.578,-0.588 -1.561,-0.588 -2.129,-0.019l-5.424,5.423l-5.433,-5.433c-0.549,-0.539 -1.561,-0.568 -2.139,0.019c-0.578,0.588 -0.558,1.59 -0.019,2.139l5.433,5.433l-5.433,5.424Z" style="fill-rule:nonzero;"/>
    </g>
    <g id="pencil_and_ellipsis_rectangle">
      <path d="M15.435,4.271l0.407,-0.418c0.204,-0.214 0.214,-0.506 0.01,-0.71l-0.135,-0.141c-0.183,-0.183 -0.481,-0.157 -0.684,0.042l-0.413,0.407l0.815,0.82Zm-5.916,5.284l1.107,-0.475l4.428,-4.428l-0.82,-0.809l-4.423,4.422l-0.496,1.076c-0.057,0.125 0.084,0.266 0.204,0.214Zm-7.979,3.566l10.892,0c0.987,0 1.535,-0.538 1.535,-1.519l0,-4.522l-1.049,1.055l0,3.373c0,0.407 -0.235,0.642 -0.642,0.642l-10.579,0c-0.413,0 -0.642,-0.235 -0.642,-0.642l0,-4.35c0,-0.407 0.229,-0.637 0.642,-0.637l8.506,0l0.971,-0.971l-9.634,0c-0.987,0 -1.54,0.533 -1.54,1.514l0,4.538c0,0.981 0.553,1.519 1.54,1.519Zm1.53,-3.054c0.402,0 0.736,-0.335 0.736,-0.731c0,-0.402 -0.334,-0.731 -0.736,-0.731c-0.412,0 -0.736,0.323 -0.736,0.731c0,0.396 0.334,0.731 0.736,0.731Zm2.172,0c0.408,0 0.737,-0.335 0.737,-0.731c0,-0.402 -0.329,-0.731 -0.737,-0.731c-0.412,0 -0.736,0.323 -0.736,0.731c0,0.396 0.334,0.731 0.736,0.731Zm2.172,0c0.403,0 0.731,-0.335 0.731,-0.731c0,-0.402 -0.328,-0.731 -0.731,-0.731c-0.412,0 -0.736,0.323 -0.736,0.731c0,0.396 0.334,0.731 0.736,0.731Z" style="fill-rule:nonzero;"/>
    </g>
    <g id="key">
      <path d="M7.44,10.881l0.752,0.752c0.165,0.172 0.395,0.267 0.633,0.262l0.89,0l0,0.752c0,0.56 0.461,1.021 1.021,1.021l0.752,0l0,0.888c0,0.234 0.093,0.459 0.257,0.626l0.59,0.59c0.157,0.155 0.368,0.242 0.589,0.242l2.344,0c0.401,-0.001 0.731,-0.331 0.732,-0.732l0,-2.344c0.001,-0.222 -0.088,-0.436 -0.245,-0.592l-4.89,-4.891c0.209,-0.594 0.315,-1.22 0.315,-1.85c0,-3.066 -2.523,-5.589 -5.589,-5.589c-1.482,0 -2.905,0.589 -3.953,1.637c-1.048,1.048 -1.638,2.471 -1.638,3.953c0,3.067 2.523,5.59 5.589,5.59c0.631,0 1.256,-0.107 1.851,-0.315Zm-5.079,-8.508c0.857,-0.858 2.02,-1.34 3.232,-1.34c2.507,0 4.569,2.062 4.569,4.568c0,0.613 -0.123,1.219 -0.362,1.783c-0.081,0.191 -0.038,0.413 0.109,0.56l5.068,5.07l0,1.979l-1.978,0l-0.499,-0.498l0,-1.203c0,-0.361 -0.296,-0.657 -0.657,-0.657l-1.107,0l0,-1.104c0,-0.361 -0.297,-0.657 -0.657,-0.657l-1.201,0l-0.95,-0.95c-0.147,-0.146 -0.369,-0.189 -0.56,-0.109c-0.563,0.239 -1.168,0.361 -1.779,0.361c-2.506,0 -4.569,-2.062 -4.569,-4.568c0,-1.212 0.482,-2.375 1.339,-3.231l0.002,-0.004Zm2.137,4.014c1.027,0 1.872,-0.845 1.872,-1.872c0,-1.026 -0.845,-1.871 -1.872,-1.871c-1.027,0 -1.872,0.845 -1.872,1.871c0,1.027 0.845,1.872 1.872,1.872Zm0,-2.709c0.467,0 0.851,0.384 0.851,0.851c0,0.467 -0.384,0.851 -0.851,0.851c-0.467,0 -0.851,-0.384 -0.851,-0.851c0,-0.001 0,-0.001 0,-0.002c0,-0.466 0.384,-0.851 0.851,-0.851l0,0.002Z" style="fill-rule:nonzero;"/>
    </g>
    <g id="minus_circle_fill">
      <path id="Bold-M" d="M8.004,16.013c4.387,0 7.996,-3.602 7.996,-7.996c0,-4.395 -3.609,-8.004 -8.004,-8.004c-4.394,0 -7.996,3.609 -7.996,8.004c0,4.394 3.609,7.996 8.004,7.996Zm-3.058,-7.09c-0.529,0 -0.921,-0.363 -0.921,-0.899c0,-0.536 0.377,-0.898 0.921,-0.898l6.108,0c0.544,0 0.921,0.362 0.921,0.898c0,0.536 -0.385,0.899 -0.921,0.899l-6.108,0Z" style="fill-rule:nonzero;"/>
    </g>
    <g id="barcode">
      <path id="Regular-M" d="M0,14.344l1.344,0l0,-12.662l-1.344,0l0,12.662Zm2.646,0l0.767,0l0,-12.662l-0.767,0l0,12.662Zm2.053,0l2.192,0l0,-12.662l-2.192,0l0,12.662Zm2.992,0l1.401,0l0,-12.662l-1.401,0l0,12.662Zm2.234,0l2.176,0l0,-12.662l-2.176,0l0,12.662Zm2.844,0l1.706,0l0,-12.662l-1.706,0l0,12.662Zm2.126,0l1.105,0l0,-12.662l-1.105,0l0,12.662Z" style="fill-rule:nonzero;"/>
    </g>
    <g id="rectangle_and_paperclip">
      <path d="M8.258,10.187c1.082,1.076 2.724,1.104 3.856,-0.021l3.43,-3.43c0.161,-0.175 0.161,-0.447 -0.007,-0.601c-0.175,-0.154 -0.412,-0.154 -0.587,0.014l-3.402,3.402c-0.803,0.804 -1.935,0.804 -2.683,0.035c-0.761,-0.782 -0.775,-1.893 0.028,-2.696l4.29,-4.276c0.531,-0.531 1.25,-0.538 1.697,-0.105c0.44,0.434 0.433,1.153 -0.104,1.691l-4.178,4.199c-0.168,0.174 -0.391,0.167 -0.545,0c-0.175,-0.168 -0.168,-0.385 0.007,-0.559l2.955,-2.955c0.175,-0.175 0.168,-0.413 0.014,-0.573c-0.161,-0.154 -0.391,-0.161 -0.566,0.021l-2.976,2.969c-0.489,0.489 -0.489,1.243 -0.035,1.69c0.482,0.469 1.188,0.469 1.684,-0.028l4.205,-4.198c0.874,-0.88 0.86,-2.033 0.07,-2.822c-0.782,-0.769 -1.963,-0.79 -2.815,0.069l-4.311,4.311c-1.131,1.131 -1.096,2.794 -0.027,3.863Zm-6.092,4.471l11.513,0c1.446,0 2.165,-0.705 2.165,-2.131l0,-4.408l-1.124,1.146l0,3.206c0,0.713 -0.371,1.062 -1.055,1.062l-11.485,0c-0.692,0 -1.055,-0.349 -1.055,-1.062l0,-7.88c0,-0.712 0.363,-1.069 1.055,-1.069l7.167,0l1.118,-1.117l-8.299,0c-1.446,0 -2.166,0.698 -2.166,2.13l0,7.992c0,1.426 0.72,2.131 2.166,2.131Z" style="fill-rule:nonzero;"/>
    </g>
    <g id="folder">
      <path d="M2.188,14.48l11.833,0c1.254,0 1.979,-0.725 1.979,-2.16l0,-7.338c0,-1.436 -0.732,-2.154 -2.188,-2.154l-6.781,0c-0.474,0 -0.752,-0.118 -1.101,-0.411l-0.425,-0.355c-0.46,-0.383 -0.822,-0.516 -1.505,-0.516l-2.077,0c-1.219,0 -1.923,0.697 -1.923,2.105l0,8.669c0,1.442 0.732,2.16 2.188,2.16Zm-1.066,-10.774c0,-0.689 0.362,-1.038 1.031,-1.038l1.554,0c0.467,0 0.746,0.112 1.101,0.418l0.425,0.349c0.453,0.376 0.823,0.515 1.513,0.515l7.052,0c0.69,0 1.08,0.37 1.08,1.094l0,0.418l-13.756,0l0,-1.756Zm1.08,9.652c-0.697,0 -1.08,-0.369 -1.08,-1.094l0,-5.749l13.756,0l0,5.756c0,0.718 -0.39,1.087 -1.08,1.087l-11.596,0Z" style="fill-rule:nonzero;"/>
    </g>
    <g id="tray_and_arrow_down">
      <path d="M8,8.902c0.142,0 0.258,-0.041 0.394,-0.177l2.293,-2.212c0.102,-0.101 0.163,-0.217 0.163,-0.359c0,-0.278 -0.217,-0.475 -0.495,-0.475c-0.136,0 -0.272,0.054 -0.367,0.163l-1.031,1.092l-0.455,0.482l0.041,-1.018l0,-5.367c0,-0.285 -0.251,-0.523 -0.543,-0.523c-0.292,0 -0.536,0.238 -0.536,0.523l0,5.367l0.041,1.018l-0.462,-0.482l-1.024,-1.092c-0.095,-0.109 -0.245,-0.163 -0.374,-0.163c-0.285,0 -0.488,0.197 -0.488,0.475c0,0.142 0.054,0.258 0.156,0.359l2.3,2.212c0.136,0.136 0.251,0.177 0.387,0.177Zm-5.869,6.616l11.738,0c1.425,0 2.131,-0.706 2.131,-2.104l0,-4.017c0,-0.617 -0.081,-0.923 -0.387,-1.289l-2.341,-2.904c-0.794,-0.977 -1.282,-1.547 -2.483,-1.547l-0.998,0l0,0.957l1.072,0c0.496,0 1.011,0.434 1.344,0.854l2.409,3.034c0.271,0.346 0.176,0.481 -0.197,0.481l-4.322,0c-0.353,0 -0.516,0.272 -0.516,0.55l0,0.027c0,0.787 -0.617,1.615 -1.581,1.615c-0.957,0 -1.574,-0.828 -1.574,-1.615l0,-0.027c0,-0.278 -0.17,-0.55 -0.523,-0.55l-4.308,0c-0.394,0 -0.469,-0.156 -0.204,-0.481l2.402,-3.034c0.333,-0.42 0.848,-0.854 1.344,-0.854l1.078,0l0,-0.957l-0.997,0c-1.208,0 -1.69,0.57 -2.483,1.547l-2.348,2.904c-0.299,0.366 -0.387,0.672 -0.387,1.289l0,4.017c0,1.398 0.712,2.104 2.131,2.104Zm0.013,-1.093c-0.678,0 -1.052,-0.366 -1.052,-1.072l0,-3.372l4.302,0c0.163,1.269 1.229,2.205 2.606,2.205c1.377,0 2.443,-0.943 2.606,-2.205l4.302,0l0,3.372c0,0.706 -0.38,1.072 -1.052,1.072l-11.712,0Z" style="fill-rule:nonzero;"/>
    </g>
    <g id="tray_and_arrow_down_fill">
      <path d="M8,9.92c0.142,0 0.258,-0.041 0.394,-0.177l2.293,-2.212c0.102,-0.108 0.163,-0.217 0.163,-0.359c0,-0.279 -0.217,-0.475 -0.495,-0.475c-0.136,0 -0.272,0.054 -0.367,0.162l-1.031,1.093l-0.455,0.482l0.041,-1.018l0,-6.725c0,-0.285 -0.251,-0.522 -0.543,-0.522c-0.292,0 -0.536,0.237 -0.536,0.522l0,6.725l0.041,1.018l-0.462,-0.482l-1.024,-1.093c-0.095,-0.108 -0.245,-0.162 -0.374,-0.162c-0.285,0 -0.488,0.196 -0.488,0.475c0,0.142 0.054,0.251 0.156,0.359l2.3,2.212c0.136,0.136 0.251,0.177 0.387,0.177Zm-5.869,5.937l11.738,0c1.425,0 2.131,-0.706 2.131,-2.104l0,-3.745c0,-0.618 -0.081,-0.909 -0.387,-1.289l-2.273,-2.918c-0.821,-1.052 -1.147,-1.262 -2.354,-1.262l-1.195,0l0,0.957l1.276,0c0.495,0 0.821,0.081 1.201,0.576l2.348,3.04c0.264,0.346 0.176,0.482 -0.197,0.482l-4.187,0c-0.38,0 -0.556,0.292 -0.556,0.59l0,0.027c0,0.835 -0.651,1.71 -1.676,1.71c-1.018,0 -1.669,-0.875 -1.669,-1.71l0,-0.027c0,-0.298 -0.183,-0.59 -0.563,-0.59l-4.173,0c-0.394,0 -0.455,-0.163 -0.204,-0.482l2.327,-3.019c0.394,-0.509 0.72,-0.597 1.215,-0.597l1.282,0l0,-0.957l-1.201,0c-1.207,0 -1.52,0.21 -2.361,1.282l-2.266,2.898c-0.299,0.38 -0.387,0.671 -0.387,1.289l0,3.745c0,1.398 0.712,2.104 2.131,2.104Z" style="fill-rule:nonzero;"/>
    </g>
    <g id="calendar">
      <path d="M2.521,15.403l10.966,0c1.678,0 2.513,-0.835 2.513,-2.489l0,-9.802c0,-1.654 -0.835,-2.489 -2.513,-2.489l-10.966,0c-1.678,0 -2.521,0.827 -2.521,2.489l0,9.802c0,1.662 0.843,2.489 2.521,2.489Zm-0.121,-1.293c-0.714,0 -1.107,-0.377 -1.107,-1.124l0,-7.57c0,-0.739 0.393,-1.124 1.107,-1.124l11.192,0c0.714,0 1.115,0.385 1.115,1.124l0,7.57c0,0.747 -0.401,1.124 -1.115,1.124l-11.192,0Zm4.03,-6.936l0.474,0c0.281,0 0.377,-0.08 0.377,-0.361l0,-0.474c0,-0.281 -0.096,-0.369 -0.377,-0.369l-0.474,0c-0.281,0 -0.377,0.088 -0.377,0.369l0,0.474c0,0.281 0.096,0.361 0.377,0.361Zm2.674,0l0.465,0c0.281,0 0.378,-0.08 0.378,-0.361l0,-0.474c0,-0.281 -0.097,-0.369 -0.378,-0.369l-0.465,0c-0.289,0 -0.378,0.088 -0.378,0.369l0,0.474c0,0.281 0.089,0.361 0.378,0.361Zm2.665,0l0.474,0c0.281,0 0.369,-0.08 0.369,-0.361l0,-0.474c0,-0.281 -0.088,-0.369 -0.369,-0.369l-0.474,0c-0.281,0 -0.377,0.088 -0.377,0.369l0,0.474c0,0.281 0.096,0.361 0.377,0.361Zm-8.004,2.625l0.474,0c0.281,0 0.369,-0.08 0.369,-0.361l0,-0.474c0,-0.281 -0.088,-0.361 -0.369,-0.361l-0.474,0c-0.281,0 -0.377,0.08 -0.377,0.361l0,0.474c0,0.281 0.096,0.361 0.377,0.361Zm2.665,0l0.474,0c0.281,0 0.377,-0.08 0.377,-0.361l0,-0.474c0,-0.281 -0.096,-0.361 -0.377,-0.361l-0.474,0c-0.281,0 -0.377,0.08 -0.377,0.361l0,0.474c0,0.281 0.096,0.361 0.377,0.361Zm2.674,0l0.465,0c0.281,0 0.378,-0.08 0.378,-0.361l0,-0.474c0,-0.281 -0.097,-0.361 -0.378,-0.361l-0.465,0c-0.289,0 -0.378,0.08 -0.378,0.361l0,0.474c0,0.281 0.089,0.361 0.378,0.361Zm2.665,0l0.474,0c0.281,0 0.369,-0.08 0.369,-0.361l0,-0.474c0,-0.281 -0.088,-0.361 -0.369,-0.361l-0.474,0c-0.281,0 -0.377,0.08 -0.377,0.361l0,0.474c0,0.281 0.096,0.361 0.377,0.361Zm-8.004,2.633l0.474,0c0.281,0 0.369,-0.088 0.369,-0.369l0,-0.473c0,-0.281 -0.088,-0.362 -0.369,-0.362l-0.474,0c-0.281,0 -0.377,0.081 -0.377,0.362l0,0.473c0,0.281 0.096,0.369 0.377,0.369Zm2.665,0l0.474,0c0.281,0 0.377,-0.088 0.377,-0.369l0,-0.473c0,-0.281 -0.096,-0.362 -0.377,-0.362l-0.474,0c-0.281,0 -0.377,0.081 -0.377,0.362l0,0.473c0,0.281 0.096,0.369 0.377,0.369Zm2.674,0l0.465,0c0.281,0 0.378,-0.088 0.378,-0.369l0,-0.473c0,-0.281 -0.097,-0.362 -0.378,-0.362l-0.465,0c-0.289,0 -0.378,0.081 -0.378,0.362l0,0.473c0,0.281 0.089,0.369 0.378,0.369Z" style="fill-rule:nonzero;"/>
    </g>
    <g id="dollarsign_circle">
      <path d="M8,16.013c4.376,0 8,-3.624 8,-8c0,-4.369 -3.631,-8 -8.008,-8c-4.368,0 -7.992,3.631 -7.992,8c0,4.376 3.631,8 8,8Zm0,-1.333c-3.702,0 -6.659,-2.965 -6.659,-6.667c0,-3.694 2.949,-6.667 6.651,-6.667c3.702,0 6.667,2.973 6.675,6.667c0.008,3.702 -2.965,6.667 -6.667,6.667Zm-0.008,-2.181c0.212,0 0.377,-0.157 0.377,-0.376l0,-0.549c1.207,-0.118 2.156,-0.824 2.156,-2.008c0,-1.067 -0.69,-1.71 -2.054,-1.953l-0.102,-0.024l0,-2.18c0.556,0.094 0.949,0.431 1.105,0.965c0.079,0.235 0.228,0.384 0.479,0.384c0.267,0 0.463,-0.196 0.463,-0.463c0,-0.086 -0.024,-0.157 -0.04,-0.243c-0.203,-0.855 -1.003,-1.435 -2.007,-1.545l0,-0.541c0,-0.22 -0.165,-0.377 -0.377,-0.377c-0.212,0 -0.368,0.149 -0.368,0.377l0,0.541c-1.193,0.133 -2.032,0.871 -2.032,1.937c0,0.996 0.667,1.593 1.977,1.898l0.055,0.016l0,2.322c-0.706,-0.102 -1.122,-0.487 -1.248,-1.012c-0.086,-0.267 -0.251,-0.392 -0.486,-0.392c-0.266,0 -0.455,0.188 -0.455,0.462c0,0.087 0.016,0.157 0.039,0.244c0.22,0.902 1.099,1.474 2.15,1.584l0,0.557c0,0.227 0.156,0.376 0.368,0.376Zm-0.368,-5.098l-0.055,-0.015c-0.706,-0.212 -1.012,-0.518 -1.012,-0.989c0,-0.478 0.4,-0.878 1.067,-0.988l0,1.992Zm0.745,1.153l0.164,0.039c0.761,0.212 1.028,0.534 1.028,1.028c0,0.557 -0.392,0.972 -1.192,1.059l0,-2.126Z" style="fill-rule:nonzero;"/>
    </g>
    <g id="arrow_right_square">
      <path d="M2.729,16.013l10.542,0c1.825,0 2.729,-0.904 2.729,-2.694l0,-10.612c0,-1.79 -0.904,-2.694 -2.729,-2.694l-10.542,0c-1.816,0 -2.729,0.895 -2.729,2.694l0,10.612c0,1.799 0.913,2.694 2.729,2.694Zm0.017,-1.399c-0.869,0 -1.347,-0.461 -1.347,-1.365l0,-10.472c0,-0.904 0.478,-1.365 1.347,-1.365l10.508,0c0.86,0 1.347,0.461 1.347,1.365l0,10.472c0,0.904 -0.487,1.365 -1.347,1.365l-10.508,0Zm9.734,-6.623c0,-0.182 -0.069,-0.33 -0.243,-0.504l-2.938,-2.955c-0.113,-0.113 -0.269,-0.174 -0.452,-0.174c-0.356,0 -0.625,0.279 -0.625,0.626c0,0.191 0.069,0.348 0.191,0.469l1.086,1.078l1.043,0.878l-1.834,-0.07l-4.528,0c-0.373,0 -0.651,0.27 -0.651,0.652c0,0.374 0.269,0.652 0.651,0.652l4.528,0l1.843,-0.069l-1.052,0.886l-1.086,1.069c-0.131,0.113 -0.191,0.269 -0.191,0.461c0,0.356 0.269,0.634 0.625,0.634c0.183,0 0.339,-0.07 0.452,-0.183l2.938,-2.937c0.156,-0.165 0.243,-0.313 0.243,-0.513Z" style="fill-rule:nonzero;"/>
    </g>
    <g id="doc_text">
      <path d="M4.037,16.013l7.926,0c1.544,0 2.313,-0.784 2.313,-2.336l0,-6.776c0,-0.963 -0.112,-1.381 -0.709,-1.992l-4.112,-4.187c-0.567,-0.582 -1.037,-0.709 -1.873,-0.709l-3.545,0c-1.537,0 -2.313,0.791 -2.313,2.343l0,11.321c0,1.56 0.769,2.336 2.313,2.336Zm0.053,-1.201c-0.769,0 -1.165,-0.411 -1.165,-1.157l0,-11.276c0,-0.739 0.396,-1.165 1.172,-1.165l3.321,0l0,4.336c0,0.941 0.47,1.403 1.403,1.403l4.254,0l0,6.702c0,0.746 -0.396,1.157 -1.172,1.157l-7.813,0Zm4.865,-8.986c-0.298,0 -0.41,-0.119 -0.41,-0.417l0,-3.963l4.298,4.38l-3.888,0Zm1.791,3.18l-5.664,0c-0.269,0 -0.47,0.201 -0.47,0.455c0,0.261 0.201,0.462 0.47,0.462l5.664,0c0.261,0 0.455,-0.201 0.455,-0.462c0,-0.254 -0.194,-0.455 -0.455,-0.455Zm0,2.604l-5.664,0c-0.269,0 -0.47,0.209 -0.47,0.47c0,0.254 0.201,0.448 0.47,0.448l5.664,0c0.261,0 0.455,-0.194 0.455,-0.448c0,-0.261 -0.194,-0.47 -0.455,-0.47Z" style="fill-rule:nonzero;"/>
    </g>
    <g id="magnifyingglass">
      <path d="M6.472,12.958c1.406,0 2.702,-0.455 3.763,-1.212l3.989,3.989c0.185,0.185 0.429,0.278 0.69,0.278c0.547,0 0.935,-0.421 0.935,-0.96c0,-0.252 -0.085,-0.488 -0.27,-0.673l-3.964,-3.973c0.833,-1.094 1.33,-2.449 1.33,-3.922c0,-3.56 -2.912,-6.472 -6.473,-6.472c-3.56,0 -6.472,2.912 -6.472,6.472c0,3.561 2.912,6.473 6.472,6.473Zm0,-1.397c-2.777,0 -5.075,-2.298 -5.075,-5.076c0,-2.777 2.298,-5.075 5.075,-5.075c2.778,0 5.076,2.298 5.076,5.075c0,2.778 -2.298,5.076 -5.076,5.076Z" style="fill-rule:nonzero;"/>
    </g>
    <g id="ruler">
      <path d="M4.816,10.355l0,-9.549l-4.816,0l0,11.958c0,1.327 1.08,2.408 2.408,2.408l13.592,0l0,-4.817l-11.184,0Zm-1.047,-4.586l-2.723,0l0,-1.734l2.723,0l0,1.734Zm0,1.047l0,1.733l-2.723,0l0,-1.733l2.723,0Zm0,2.779l0,1.734l-2.723,0l0,-1.734l2.723,0Zm0,-7.743l0,1.137l-2.723,0l0,-1.137l2.723,0Zm-2.723,10.912l0,-0.388l2.723,0l0,0.388c0,0.751 -0.61,1.362 -1.361,1.362c-0.752,0 -1.362,-0.612 -1.362,-1.362Zm13.908,1.361l-10.564,0c0.267,-0.388 0.425,-0.856 0.425,-1.362l0,-1.362l0.76,0l0,0.97l1.046,0l0,-0.97l0.839,0l0,0.97l1.047,0l0,-0.97l0.838,0l0,0.97l1.047,0l0,-0.97l0.838,0l0,0.97l1.047,0l0,-0.97l0.838,0l0,0.97l1.047,0l0,-0.97l0.792,0l0,2.724Z" style="fill-rule:nonzero;"/>
    </g>
    <g id="weight">
      <path d="M15.974,15.214l-2.876,-9.231c-0.07,-0.222 -0.265,-0.381 -0.497,-0.404l-2.604,-0.252c0.635,-0.556 1.038,-1.371 1.038,-2.279c0,-1.674 -1.361,-3.035 -3.035,-3.035c-1.673,0 -3.035,1.361 -3.035,3.035c0,0.908 0.404,1.723 1.038,2.279l-2.604,0.252c-0.231,0.023 -0.427,0.182 -0.497,0.404l-2.876,9.231c-0.055,0.176 -0.022,0.367 0.086,0.515c0.109,0.148 0.283,0.236 0.467,0.236l14.842,0c0.184,0 0.358,-0.088 0.467,-0.236c0.108,-0.148 0.141,-0.339 0.086,-0.515Zm-7.974,-14.044c1.035,0 1.878,0.842 1.878,1.878c0,1.035 -0.842,1.878 -1.878,1.878c-1.035,0 -1.878,-0.843 -1.878,-1.878c0,-1.036 0.843,-1.878 1.878,-1.878Zm-6.635,13.638l2.528,-8.114l3.329,-0.322l1.556,0l3.329,0.322l2.528,8.114l-13.27,0Z" style="fill-rule:nonzero;"/>
    </g>
    <g id="text_bubble">
      <path d="M4.465,15.523c0.355,0 0.602,-0.189 1.045,-0.581l2.505,-2.228l4.66,0c2.164,0 3.325,-1.198 3.325,-3.325l0,-5.561c0,-2.127 -1.161,-3.325 -3.325,-3.325l-9.35,0c-2.163,0 -3.325,1.191 -3.325,3.325l0,5.561c0,2.134 1.162,3.325 3.325,3.325l0.348,0l0,1.887c0,0.559 0.283,0.922 0.792,0.922Zm0.297,-1.329l0,-2.105c0,-0.392 -0.152,-0.544 -0.544,-0.544l-0.893,0c-1.467,0 -2.156,-0.748 -2.156,-2.164l0,-5.553c0,-1.416 0.689,-2.156 2.156,-2.156l9.35,0c1.459,0 2.156,0.74 2.156,2.156l0,5.553c0,1.416 -0.697,2.164 -2.156,2.164l-4.704,0c-0.407,0 -0.61,0.058 -0.886,0.341l-2.323,2.308Zm-0.457,-9.43l7.39,0c0.232,0 0.421,-0.181 0.421,-0.421c0,-0.232 -0.189,-0.414 -0.421,-0.414l-7.39,0c-0.232,0 -0.421,0.182 -0.421,0.414c0,0.24 0.189,0.421 0.421,0.421Zm0,2.36l7.39,0c0.232,0 0.421,-0.182 0.421,-0.421c0,-0.225 -0.189,-0.421 -0.421,-0.421l-7.39,0c-0.232,0 -0.421,0.196 -0.421,0.421c0,0.239 0.189,0.421 0.421,0.421Zm0,2.366l4.806,0c0.232,0 0.414,-0.181 0.414,-0.414c0,-0.239 -0.182,-0.428 -0.414,-0.428l-4.806,0c-0.232,0 -0.421,0.189 -0.421,0.428c0,0.233 0.189,0.414 0.421,0.414Z" style="fill-rule:nonzero;"/>
    </g>
    <g id="diamond">
      <path d="M15.975,6.621c-0.004,-0.013 -0.008,-0.026 -0.013,-0.039c-0.002,-0.004 -0.002,-0.009 -0.004,-0.014l-2.534,-5.069c-0.013,-0.022 -0.027,-0.043 -0.044,-0.063c-0.005,-0.007 -0.009,-0.014 -0.014,-0.021c-0.031,-0.034 -0.068,-0.063 -0.109,-0.085c-0.004,-0.002 -0.006,-0.006 -0.011,-0.008c-0.006,-0.003 -0.014,-0.003 -0.021,-0.006c-0.034,-0.014 -0.07,-0.024 -0.107,-0.029c-0.012,-0.001 -0.023,-0.004 -0.035,-0.005c-0.005,0 -0.009,-0.002 -0.014,-0.002l-10.138,0c-0.005,0 -0.01,0.002 -0.015,0.002c-0.011,0.001 -0.021,0.004 -0.032,0.005c-0.038,0.004 -0.075,0.014 -0.109,0.029c-0.007,0.003 -0.015,0.003 -0.021,0.006c-0.005,0.002 -0.007,0.006 -0.011,0.008c-0.041,0.022 -0.078,0.051 -0.109,0.085c-0.005,0.007 -0.009,0.014 -0.014,0.021c-0.017,0.02 -0.031,0.041 -0.044,0.063l-2.534,5.069c-0.002,0.005 -0.002,0.01 -0.004,0.014c-0.005,0.013 -0.009,0.026 -0.013,0.039c-0.011,0.033 -0.018,0.068 -0.02,0.102c-0.001,0.008 -0.005,0.015 -0.005,0.023c0,0.008 0.004,0.015 0.005,0.024c0.005,0.048 0.017,0.095 0.033,0.14c0.019,0.042 0.045,0.081 0.077,0.114l0.001,0.002l7.604,7.604c0.006,0.006 0.014,0.007 0.02,0.013c0.038,0.03 0.079,0.055 0.123,0.076c0.088,0.036 0.186,0.036 0.274,0c0.044,-0.021 0.085,-0.046 0.123,-0.076c0.006,-0.006 0.014,-0.007 0.02,-0.013l7.604,-7.604l0.001,-0.002c0.032,-0.033 0.058,-0.072 0.077,-0.114c0.016,-0.045 0.028,-0.092 0.033,-0.14c0.001,-0.009 0.005,-0.016 0.005,-0.024c0,-0.008 -0.004,-0.015 -0.005,-0.023c-0.002,-0.034 -0.009,-0.069 -0.02,-0.102Zm-3.547,-4.549l-1.893,3.788l-1.894,-3.788l3.787,0Zm-2.534,4.278l-3.788,0l1.894,-3.788l1.894,3.788Zm-2.535,-4.278l-1.894,3.788l-1.893,-3.788l3.787,0Zm-4.428,0.49l1.893,3.788l-3.787,0l1.894,-3.788Zm-1.579,4.58l3.828,0l1.914,5.741l-5.742,-5.741Zm6.648,5.955l-1.985,-5.955l3.97,0l-1.985,5.955Zm0.906,-0.214l1.914,-5.741l3.828,0l-5.742,5.741Zm2.27,-6.533l1.893,-3.788l1.894,3.788l-3.787,0Z" style="fill-rule:nonzero;"/>
    </g>
    <g id="plus_bold">
      <path d="M7.922,16.013c0.793,0 1.457,-0.692 1.457,-1.429l0,-5.119l5.026,0c0.765,0 1.429,-0.664 1.429,-1.457c0,-0.793 -0.664,-1.457 -1.429,-1.457l-5.026,0l0,-5.118c0,-0.765 -0.664,-1.42 -1.457,-1.42c-0.793,0 -1.457,0.655 -1.457,1.42l0,5.118l-5.036,0c-0.728,0 -1.429,0.664 -1.429,1.457c0,0.793 0.701,1.457 1.429,1.457l5.036,0l0,5.119c0,0.737 0.664,1.429 1.457,1.429Z" style="fill-rule:nonzero;"/>
    </g>
    <g id="arrow_2_squarepath">
      <path d="M11.489,2.065l-5.26,0c-0.368,0 -0.581,0.187 -0.575,0.517c0.007,0.329 0.207,0.523 0.575,0.523l5.248,0c0.646,0 1.001,0.343 1.001,1.015l0,7.017l-0.963,-1.034l-0.62,-0.607c-0.22,-0.213 -0.523,-0.239 -0.75,-0.019c-0.219,0.219 -0.206,0.536 0.013,0.756l2.178,2.164c0.426,0.42 0.892,0.42 1.318,0l2.171,-2.164c0.227,-0.22 0.233,-0.537 0.02,-0.756c-0.22,-0.22 -0.53,-0.201 -0.75,0.019l-0.62,0.607l-0.957,1.028l0,-7.063c0,-1.338 -0.678,-2.003 -2.029,-2.003Zm-6.978,11.896l5.26,0c0.368,0 0.581,-0.187 0.575,-0.517c-0.007,-0.336 -0.207,-0.523 -0.575,-0.523l-5.241,0c-0.646,0 -1.008,-0.343 -1.008,-1.015l0,-7.017l0.963,1.027l0.62,0.614c0.22,0.213 0.53,0.239 0.75,0.013c0.219,-0.213 0.206,-0.53 -0.013,-0.75l-2.178,-2.171c-0.42,-0.413 -0.892,-0.413 -1.312,0l-2.177,2.171c-0.227,0.22 -0.233,0.537 -0.02,0.75c0.226,0.226 0.53,0.2 0.75,-0.013l0.62,-0.614l0.957,-1.021l0,7.063c0,1.338 0.684,2.003 2.029,2.003Z" style="fill-rule:nonzero;"/>
    </g>
    <g id="paperclip">
      <path d="M13.053,8.359l-5.488,5.488c-1.426,1.434 -3.345,1.292 -4.57,0.053c-1.232,-1.225 -1.374,-3.129 0.053,-4.563l7.489,-7.482c0.859,-0.858 2.121,-0.978 2.942,-0.164c0.814,0.829 0.694,2.083 -0.157,2.942l-7.317,7.318c-0.366,0.38 -0.814,0.268 -1.068,0.015c-0.254,-0.262 -0.359,-0.695 0.007,-1.076l5.115,-5.1c0.224,-0.231 0.239,-0.56 0.022,-0.776c-0.216,-0.209 -0.545,-0.194 -0.769,0.03l-5.129,5.13c-0.762,0.761 -0.732,1.926 -0.06,2.598c0.732,0.732 1.837,0.717 2.606,-0.052l7.347,-7.348c1.397,-1.396 1.337,-3.233 0.12,-4.45c-1.188,-1.187 -3.054,-1.277 -4.451,0.12l-7.526,7.534c-1.844,1.844 -1.703,4.48 -0.037,6.145c1.665,1.658 4.3,1.799 6.145,-0.037l5.525,-5.526c0.217,-0.216 0.217,-0.612 -0.007,-0.814c-0.217,-0.231 -0.568,-0.201 -0.792,0.015Z" style="fill-rule:nonzero;"/>
    </g>
    <g id="bill">
      <path d="M11.553,0.013c1.132,0 2.057,0.886 2.119,2.002l0.004,0.12l-0.001,10.417l1.77,0c0.259,0 0.477,0.178 0.538,0.418l0.013,0.067l0.004,0.07l0,0.784c0,1.131 -0.886,2.056 -2.002,2.119l-0.12,0.003l-9.405,0l-0.106,-0.003c-0.033,-0.002 -0.062,-0.005 -0.081,-0.009c-0.069,0.008 -0.137,0.012 -0.204,0.012c-0.127,0 -0.247,-0.043 -0.344,-0.119l-0.025,-0.022l-0.085,-0.034c-0.687,-0.298 -1.169,-0.94 -1.261,-1.687l-0.012,-0.133l-0.004,-0.127l-0.001,-10.417l-1.795,0c-0.259,0 -0.477,-0.178 -0.538,-0.418l-0.013,-0.067l-0.004,-0.07l0,-1.175c0,-0.919 0.717,-1.671 1.621,-1.728l0.11,-0.003l9.822,0Zm3.337,13.649l-9.078,0l0,0.62c0,0.176 -0.026,0.348 -0.077,0.512l-0.038,0.109l8.181,0c0.528,0 0.961,-0.405 1.008,-0.92l0.004,-0.092l0,-0.229Zm-11.549,-12.539l0.04,0.111c0.04,0.123 0.065,0.25 0.075,0.379l0.005,0.131l0,12.147c0,0.459 0.308,0.854 0.739,0.975l0.053,0.012l0.042,-0.013c0.216,-0.079 0.373,-0.274 0.402,-0.505l0.005,-0.078l0,-1.175c0,-0.283 0.212,-0.517 0.486,-0.551l0.069,-0.004l7.308,0l0,-10.417c0,-0.528 -0.403,-0.961 -0.92,-1.008l-0.092,-0.004l-8.212,0Zm5.835,2.025c0.282,0 0.516,0.212 0.55,0.485l0.005,0.07l0,0.228l0.228,0c0.673,0 1.229,0.495 1.324,1.141l0.011,0.098l0.004,0.1c0,0.307 -0.249,0.555 -0.555,0.555c-0.307,0 -0.555,-0.248 -0.555,-0.555c0,-0.11 -0.079,-0.202 -0.183,-0.224l-0.046,-0.004l-3.918,0c-0.111,0 -0.203,0.078 -0.224,0.182l-0.005,0.046l0,0.784c0,0.11 0.079,0.202 0.183,0.224l0.046,0.004l3.918,0c0.706,0 1.284,0.546 1.335,1.239l0.004,0.1l0,0.784c0,0.706 -0.546,1.284 -1.239,1.335l-0.1,0.004l-0.228,-0.001l0,0.229c0,0.259 -0.178,0.477 -0.419,0.538l-0.067,0.013l-0.069,0.004c-0.283,0 -0.517,-0.212 -0.551,-0.485l-0.005,-0.07l0,-0.229l-1.24,0l0,0.229c0,0.259 -0.178,0.477 -0.419,0.538l-0.067,0.013l-0.07,0.004c-0.282,0 -0.516,-0.212 -0.55,-0.485l-0.005,-0.07l0,-0.229l-0.228,0.001c-0.673,0 -1.229,-0.495 -1.324,-1.141l-0.011,-0.098l-0.004,-0.1c0,-0.307 0.249,-0.555 0.555,-0.555c0.307,0 0.555,0.248 0.555,0.555c0,0.11 0.079,0.202 0.183,0.224l0.046,0.004l3.918,0c0.111,0 0.203,-0.078 0.224,-0.182l0.005,-0.046l0,-0.784c0,-0.11 -0.079,-0.202 -0.183,-0.224l-0.046,-0.004l-3.918,0c-0.706,0 -1.284,-0.546 -1.335,-1.239l-0.004,-0.1l0,-0.784c0,-0.706 0.546,-1.284 1.239,-1.335l0.1,-0.004l0.228,0l0,-0.228c0,-0.26 0.178,-0.477 0.419,-0.538l0.067,-0.013l0.069,-0.004c0.283,0 0.517,0.212 0.551,0.485l0.005,0.07l0,0.228l1.24,0l0,-0.228c0,-0.26 0.178,-0.477 0.419,-0.538l0.067,-0.013l0.07,-0.004Zm-7.445,-2.025c-0.318,0 -0.581,0.24 -0.617,0.548l-0.004,0.073l0,0.619l1.24,0l0.001,-0.619c0,-0.318 -0.24,-0.581 -0.548,-0.617l-0.072,-0.004Z" style="fill-rule:nonzero;"/>
    </g>
    <g id="checkmark_circle">
      <path d="M8,16.013c4.376,0 8,-3.624 8,-8c0,-4.369 -3.631,-8 -8.008,-8c-4.368,0 -7.992,3.631 -7.992,8c0,4.376 3.631,8 8,8Zm0,-1.333c-3.702,0 -6.659,-2.965 -6.659,-6.667c0,-3.694 2.949,-6.667 6.651,-6.667c3.702,0 6.667,2.973 6.675,6.667c0.008,3.702 -2.965,6.667 -6.667,6.667Zm-0.988,-2.746c0.259,0 0.47,-0.125 0.635,-0.368l3.875,-6.094c0.101,-0.157 0.188,-0.337 0.188,-0.51c0,-0.361 -0.314,-0.58 -0.643,-0.58c-0.204,0 -0.408,0.117 -0.549,0.352l-3.538,5.671l-1.819,-2.353c-0.181,-0.235 -0.369,-0.321 -0.581,-0.321c-0.345,0 -0.619,0.282 -0.619,0.635c0,0.172 0.07,0.337 0.188,0.486l2.188,2.714c0.212,0.259 0.416,0.368 0.675,0.368Z" style="fill-rule:nonzero;"/>
    </g>
    <g id="person_2">
      <path d="M10.985,7.978c1.367,0 2.481,-1.217 2.481,-2.7c0,-1.465 -1.108,-2.625 -2.481,-2.625c-1.368,0 -2.488,1.178 -2.482,2.637c0.005,1.476 1.114,2.688 2.482,2.688Zm-6.619,0.127c1.184,0 2.155,-1.063 2.155,-2.367c0,-1.275 -0.96,-2.304 -2.155,-2.304c-1.183,0 -2.16,1.046 -2.154,2.315c0,1.299 0.971,2.356 2.154,2.356Zm6.619,-0.994c-0.839,0 -1.557,-0.804 -1.557,-1.821c-0.006,-1 0.701,-1.77 1.557,-1.77c0.856,0 1.556,0.759 1.556,1.758c0,1.017 -0.712,1.833 -1.556,1.833Zm-6.619,0.138c-0.706,0 -1.298,-0.672 -1.298,-1.5c0,-0.81 0.586,-1.459 1.298,-1.459c0.724,0 1.304,0.638 1.304,1.448c0,0.839 -0.597,1.511 -1.304,1.511Zm-3.2,6.124l4.51,0c-0.276,-0.155 -0.482,-0.5 -0.442,-0.85l-4.206,0c-0.12,0 -0.172,-0.046 -0.172,-0.155c0,-1.425 1.626,-2.758 3.504,-2.758c0.719,0 1.374,0.172 1.931,0.5c0.178,-0.23 0.39,-0.431 0.649,-0.609c-0.741,-0.488 -1.632,-0.741 -2.58,-0.741c-2.407,0 -4.36,1.746 -4.36,3.659c0,0.638 0.391,0.954 1.166,0.954Zm6.205,0l7.216,0c0.959,0 1.413,-0.287 1.413,-0.919c0,-1.505 -1.902,-3.683 -5.021,-3.683c-3.114,0 -5.016,2.178 -5.016,3.683c0,0.632 0.454,0.919 1.408,0.919Zm-0.276,-0.867c-0.149,0 -0.207,-0.041 -0.207,-0.161c0,-0.942 1.46,-2.706 4.091,-2.706c2.637,0 4.096,1.764 4.096,2.706c0,0.12 -0.063,0.161 -0.213,0.161l-7.767,0Z" style="fill-rule:nonzero;"/>
    </g>
    <g id="person_2_fill">
      <path d="M11.064,7.771c1.256,0 2.342,-1.127 2.342,-2.594c0,-1.45 -1.092,-2.524 -2.342,-2.524c-1.256,0 -2.354,1.097 -2.348,2.535c0,1.456 1.086,2.583 2.348,2.583Zm-6.762,0.135c1.098,0 2.043,-0.986 2.043,-2.26c0,-1.262 -0.951,-2.195 -2.043,-2.195c-1.086,0 -2.048,0.957 -2.042,2.207c0,1.262 0.951,2.248 2.042,2.248Zm-3.269,5.3l4.455,0c-0.611,-0.886 0.135,-2.671 1.403,-3.645c-0.658,-0.434 -1.497,-0.757 -2.589,-0.757c-2.647,0 -4.302,1.954 -4.302,3.58c0,0.529 0.288,0.822 1.033,0.822Zm6.339,0l7.372,0c0.927,0 1.256,-0.264 1.256,-0.781c0,-1.514 -1.896,-3.603 -4.942,-3.603c-3.04,0 -4.936,2.089 -4.936,3.603c0,0.517 0.328,0.781 1.25,0.781Z" style="fill-rule:nonzero;"/>
    </g>
    <g id="hammer">
      <path d="M0.38,14.143l1.001,1.001c0.552,0.539 1.179,0.495 1.743,-0.126l6.63,-7.22c0.279,0.191 0.533,0.184 0.837,0.121l0.678,-0.14l0.45,0.45l-0.032,0.336c-0.044,0.343 0.064,0.615 0.387,0.938l0.526,0.526c0.33,0.33 0.754,0.349 1.065,0.038l2.111,-2.11c0.31,-0.311 0.297,-0.735 -0.032,-1.065l-0.533,-0.532c-0.323,-0.324 -0.589,-0.438 -0.938,-0.387l-0.342,0.038l-0.425,-0.431l0.184,-0.742c0.095,-0.367 0,-0.671 -0.405,-1.064l-1.566,-1.553c-2.301,-2.288 -5.242,-2.219 -7.264,-0.184c-0.272,0.279 -0.304,0.659 -0.126,0.938c0.152,0.241 0.462,0.387 0.881,0.279c0.982,-0.247 1.965,-0.171 2.928,0.482l-0.406,1.026c-0.152,0.381 -0.139,0.691 0.013,0.976l-7.245,6.668c-0.608,0.564 -0.678,1.179 -0.12,1.737Zm5.09,-11.852c1.73,-1.293 3.879,-1.091 5.438,0.475l1.705,1.692c0.152,0.152 0.171,0.273 0.133,0.463l-0.247,1.014l1.02,1.02l0.628,-0.057c0.183,-0.019 0.24,-0.006 0.386,0.14l0.406,0.405l-1.788,1.781l-0.405,-0.399c-0.146,-0.146 -0.159,-0.209 -0.14,-0.393l0.057,-0.621l-1.014,-1.014l-1.052,0.203c-0.184,0.038 -0.279,0.038 -0.431,-0.121l-1.413,-1.413c-0.146,-0.152 -0.165,-0.241 -0.083,-0.45l0.615,-1.477c-1.039,-0.995 -2.408,-1.546 -3.733,-1.122c-0.057,0.019 -0.101,0.007 -0.12,-0.019c-0.019,-0.031 -0.019,-0.063 0.038,-0.107Zm-4.266,11.396c-0.317,-0.324 -0.203,-0.52 0.013,-0.717l7.111,-6.566l0.799,0.799l-6.592,7.092c-0.196,0.216 -0.444,0.279 -0.704,0.019l-0.627,-0.627Z" style="fill-rule:nonzero;"/>
    </g>
    <g id="hammer_fill">
      <path d="M11.282,1.793c-1.649,-1.636 -5.011,-1.826 -6.939,0.12c-0.309,0.31 -0.253,0.664 -0.044,0.879c0.158,0.158 0.398,0.227 0.626,0.158c1.346,-0.43 2.584,-0.462 3.583,0.272l-0.531,1.415c-0.202,0.55 -0.095,0.935 0.265,1.302l1.454,1.466c0.291,0.297 0.619,0.386 1.043,0.284l1.023,-0.233l0.487,0.493l-0.082,0.72c-0.038,0.297 0,0.48 0.259,0.733l0.486,0.48c0.279,0.272 0.62,0.297 0.879,0.038l2.028,-2.016c0.266,-0.259 0.228,-0.606 -0.044,-0.884l-0.48,-0.487c-0.246,-0.253 -0.442,-0.31 -0.733,-0.259l-0.727,0.088l-0.493,-0.486l0.297,-1.081c0.101,-0.354 -0.019,-0.682 -0.398,-1.055l-1.959,-1.947Zm-10.8,10.636c-0.613,0.544 -0.645,1.112 -0.076,1.681l1.011,1.005c0.563,0.562 1.144,0.531 1.688,-0.076l6.085,-6.831l-1.87,-1.865l-6.838,6.086Z" style="fill-rule:nonzero;"/>
    </g>
    <g id="cart_fill">
      <path d="M0,1.718c0,0.285 0.236,0.527 0.513,0.527l2.343,0l1.109,7.612c0.146,0.984 0.666,1.601 1.671,1.601l8.09,0c0.271,0 0.506,-0.221 0.506,-0.52c0,-0.298 -0.235,-0.52 -0.506,-0.52l-7.972,0c-0.395,0 -0.638,-0.277 -0.7,-0.7l-0.111,-0.728l8.797,0c1.012,0 1.532,-0.623 1.678,-1.615l0.554,-3.667c0.014,-0.09 0.028,-0.201 0.028,-0.264c0,-0.332 -0.25,-0.561 -0.631,-0.561l-11.314,0l-0.138,-0.88c-0.07,-0.534 -0.264,-0.805 -0.971,-0.805l-2.433,0c-0.277,0 -0.513,0.243 -0.513,0.52Zm5.054,11.986c0,0.631 0.499,1.124 1.13,1.124c0.624,0 1.123,-0.493 1.123,-1.124c0,-0.623 -0.499,-1.123 -1.123,-1.123c-0.631,0 -1.13,0.5 -1.13,1.123Zm6.482,0c0,0.631 0.506,1.124 1.13,1.124c0.63,0 1.13,-0.493 1.13,-1.124c0,-0.623 -0.5,-1.123 -1.13,-1.123c-0.624,0 -1.13,0.5 -1.13,1.123Z" style="fill-rule:nonzero;"/>
    </g>
    <g id="gauge">
      <path d="M8,16.013c4.376,0 8,-3.624 8,-8c0,-4.369 -3.631,-8 -8.008,-8c-4.368,0 -7.992,3.631 -7.992,8c0,4.376 3.631,8 8,8Zm0,-1.333c-3.702,0 -6.659,-2.965 -6.659,-6.667c0,-3.694 2.949,-6.667 6.651,-6.667c3.702,0 6.667,2.973 6.675,6.667c0.008,3.702 -2.965,6.667 -6.667,6.667Zm-0.008,-10.22c0.424,0 0.769,-0.353 0.769,-0.769c0,-0.431 -0.345,-0.768 -0.769,-0.768c-0.416,0 -0.769,0.337 -0.769,0.768c0,0.416 0.353,0.769 0.769,0.769Zm2.259,0.698c0.431,0 0.769,-0.353 0.769,-0.776c0,-0.424 -0.338,-0.777 -0.769,-0.777c-0.424,0 -0.769,0.353 -0.769,0.777c0,0.423 0.345,0.776 0.769,0.776Zm-4.62,0c0.432,0 0.769,-0.353 0.769,-0.776c0,-0.424 -0.337,-0.769 -0.769,-0.769c-0.423,0 -0.768,0.345 -0.768,0.769c0,0.423 0.345,0.776 0.768,0.776Zm-1.545,1.655c0.432,0 0.769,-0.345 0.769,-0.769c0,-0.431 -0.337,-0.776 -0.769,-0.776c-0.423,0 -0.768,0.345 -0.768,0.776c0,0.424 0.345,0.769 0.768,0.769Zm7.71,0.008c0.431,0 0.769,-0.345 0.769,-0.769c0,-0.431 -0.338,-0.776 -0.769,-0.776c-0.423,0 -0.769,0.345 -0.769,0.776c0,0.424 0.346,0.769 0.769,0.769Zm-3.804,5.961c0.698,0 1.247,-0.557 1.247,-1.255c0,-0.502 -0.298,-0.934 -0.729,-1.13l0,-3.67c0,-0.298 -0.236,-0.534 -0.518,-0.534c-0.274,0 -0.51,0.236 -0.51,0.534l0,3.67c-0.439,0.196 -0.737,0.628 -0.737,1.13c0,0.698 0.557,1.255 1.247,1.255Z" style="fill-rule:nonzero;"/>
    </g>
    <g id="play">
      <path d="M1.989,16.013c0.378,0 0.7,-0.151 1.078,-0.369l11.019,-6.369c0.785,-0.464 1.059,-0.766 1.059,-1.267c0,-0.501 -0.274,-0.803 -1.059,-1.257l-11.019,-6.379c-0.378,-0.217 -0.7,-0.359 -1.078,-0.359c-0.699,0 -1.134,0.529 -1.134,1.351l0,13.288c0,0.822 0.435,1.361 1.134,1.361Z" style="fill-rule:nonzero;"/>
    </g>
    <g id="checkmark">
      <path d="M6.182,15.562c0.531,0 0.947,-0.212 1.239,-0.646l8.278,-12.772c0.213,-0.318 0.301,-0.61 0.301,-0.884c0,-0.725 -0.531,-1.247 -1.274,-1.247c-0.513,0 -0.822,0.177 -1.132,0.672l-7.447,11.781l-3.803,-4.794c-0.301,-0.362 -0.61,-0.53 -1.053,-0.53c-0.751,0 -1.291,0.53 -1.291,1.265c0,0.318 0.106,0.619 0.38,0.937l4.573,5.616c0.345,0.416 0.725,0.602 1.229,0.602Z" style="fill-rule:nonzero;"/>
    </g>
    <g id="archivebox">
      <path d="M3.61,15.381l8.78,0c1.577,0 2.417,-0.817 2.417,-2.386l0,-7.972c0.777,-0.128 1.193,-0.712 1.193,-1.568l0,-1.217c0,-0.976 -0.536,-1.593 -1.521,-1.593l-12.958,0c-0.937,0 -1.521,0.617 -1.521,1.593l0,1.217c0,0.856 0.416,1.44 1.193,1.568l0,7.972c0,1.577 0.84,2.386 2.417,2.386Zm-1.761,-11.542c-0.4,0 -0.56,-0.168 -0.56,-0.568l0,-0.849c0,-0.4 0.16,-0.568 0.56,-0.568l12.31,0c0.4,0 0.552,0.168 0.552,0.568l0,0.849c0,0.4 -0.152,0.568 -0.552,0.568l-12.31,0Zm1.745,10.333c-0.721,0 -1.113,-0.392 -1.113,-1.113l0,-8.012l11.038,0l0,8.012c0,0.721 -0.4,1.113 -1.113,1.113l-8.812,0Zm1.769,-5.899l5.282,0c0.336,0 0.577,-0.232 0.577,-0.584l0,-0.256c0,-0.353 -0.241,-0.577 -0.577,-0.577l-5.282,0c-0.337,0 -0.569,0.224 -0.569,0.577l0,0.256c0,0.352 0.232,0.584 0.569,0.584Z" style="fill-rule:nonzero;"/>
    </g>
    <g id="printer">
      <path d="M2.104,13.52l0.75,0l0,0.786c0,0.942 0.454,1.353 1.353,1.353l7.586,0c0.892,0 1.353,-0.411 1.353,-1.353l0,-0.786l0.743,0c1.382,0 2.111,-0.694 2.111,-2.076l0,-6.629c0,-1.374 -0.729,-2.075 -2.111,-2.075l-0.694,0l0,-0.376c0,-1.381 -0.694,-1.997 -2.004,-1.997l-6.382,0c-1.246,0 -2.004,0.616 -2.004,1.997l0,0.376l-0.701,0c-1.304,0 -2.104,0.701 -2.104,2.075l0,6.629c0,1.382 0.73,2.076 2.104,2.076Zm1.799,-11.234c0,-0.594 0.297,-0.885 0.892,-0.885l6.41,0c0.588,0 0.892,0.291 0.892,0.885l0,0.454l-8.194,0l0,-0.454Zm-1.814,10.171c-0.623,0 -0.949,-0.333 -0.949,-0.956l0,-6.743c0,-0.623 0.326,-0.956 0.949,-0.956l11.815,0c0.63,0 0.956,0.333 0.956,0.956l0,6.743c0,0.623 -0.326,0.956 -0.956,0.956l-0.758,0l0,-4.249c0,-0.942 -0.461,-1.353 -1.353,-1.353l-7.586,0c-0.857,0 -1.353,0.411 -1.353,1.353l0,4.249l-0.765,0Zm2.472,2.139c-0.382,0 -0.566,-0.184 -0.566,-0.573l0,-5.539c0,-0.383 0.184,-0.56 0.566,-0.56l6.885,0c0.375,0 0.559,0.177 0.559,0.56l0,5.539c0,0.389 -0.184,0.573 -0.559,0.573l-6.885,0Zm0.985,-4.122l4.922,0c0.248,0 0.439,-0.191 0.439,-0.446c0,-0.241 -0.191,-0.425 -0.439,-0.425l-4.922,0c-0.262,0 -0.446,0.184 -0.446,0.425c0,0.255 0.184,0.446 0.446,0.446Zm0,2.472l4.922,0c0.248,0 0.439,-0.191 0.439,-0.432c0,-0.248 -0.191,-0.439 -0.439,-0.439l-4.922,0c-0.262,0 -0.446,0.191 -0.446,0.439c0,0.241 0.184,0.432 0.446,0.432Z" style="fill-rule:nonzero;"/>
    </g>
  </defs>
</svg>
